<?xml version="1.0" encoding="utf-8"?>
<!-- Generator: Adobe Illustrator 24.1.1, SVG Export Plug-In . SVG Version: 6.00 Build 0)  -->
<svg version="1.1" id="Camada_1" xmlns="http://www.w3.org/2000/svg" xmlns:xlink="http://www.w3.org/1999/xlink" x="0px" y="0px"
	 viewBox="0 0 696 809" style="enable-background:new 0 0 696 809;" xml:space="preserve">
<style type="text/css">
	.st0{fill:#606060;}
	.st1{fill:#FDFDFD;}
	.st2{fill:#FCFCFC;}
</style>
<g>
	<path class="st0" d="M96,2c1.3,0,2.7,0,4,0c0.6,0.9,1.1,2,1.9,2.7c23.7,19,47.4,37.9,71,56.9c28.3,22.8,56.4,45.7,84.6,68.7
		c8.2,6.7,16.9,11.7,27.8,11.6c39.1-0.1,78.3,0,117.4-0.2c10,0,20.5,1.1,28-7.9c1.3-1.5,2.9-2.7,4.5-4c23-18.5,46-36.9,69-55.3
		c22.9-18.4,45.7-36.8,68.6-55.1c7.3-5.9,14.7-11.6,22-17.4c0.7,0,1.3,0,2,0c0.8,0.9,1.5,2.1,2.5,2.8c9.2,6.2,18.4,12.4,27.8,18.2
		c4.1,2.5,5.5,5.4,5,10.2c-4.2,45.5-8.2,91-12.4,136.5c-3.8,40.7-7.9,81.3-11.5,122.1c-0.5,5.4-0.2,11.6,1.9,16.5
		c16.3,37.4,33.2,74.5,50,111.7c2.1,4.7,2.4,9.2,0.7,14c-0.8,2.2-1.8,4.3-2.3,6.6c-0.3,1.3-0.4,3.6,0.4,4.1
		c5.2,3.3,10.6,6.3,15.9,9.4c0,0.7,0,1.3,0,2c-0.7,0.1-1.6-0.1-1.9,0.3c-5,5.8-9.9,11.7-15,17.3c-2.1,2.3-1.7,3.7,0.3,5.8
		c4.8,4.9,9.3,10,14.5,15.7c-9.7,10.1-19,20.4-29,30.1c-22,21.3-44.3,42.3-66.4,63.4c-22,21-44,42.1-66,63.1
		c-21.2,20.2-42.4,40.4-63.6,60.6c-24.8,23.7-49.6,47.3-74.3,71.1c-8,7.7-15.8,15.7-23.7,23.5c-0.7,0-1.3,0-2,0
		c-0.7-1.3-1.2-2.8-2.2-3.7c-10.5-10.1-21.2-20.1-31.8-30.2c-26.8-25.4-53.5-50.8-80.3-76.3c-16.4-15.6-32.6-31.3-49-46.9
		c-22-21-44-42-66-63c-13.7-13.1-27.2-26.4-40.9-39.5C61.7,531.8,45.3,516.4,29,501c-2.7-2.5-4.2-4.8-1.4-8.4
		c3.7-4.7,7-9.6,10.2-14.6c0.8-1.2,1.2-3.6,0.5-4.4c-5.2-6-10.7-11.8-16.1-17.6c-1.7-5.1,3.2-5.6,5.6-7.3c8.3-5.9,8.8-6.3,5.2-15.3
		c-2.4-5.9-1.7-11.3,0.8-16.8c14-31.1,28-62.3,42.1-93.4c5.7-12.5,10.4-24.6,8.8-39.3c-4.8-42.1-8-84.4-11.8-126.5
		C69.1,115,65.3,72.8,61.3,30.6c-0.4-3.9,0.7-6.3,3.9-8.2c5.2-3.2,10.4-6.5,15.5-9.8C85.9,9.1,90.9,5.5,96,2z M492.6,357.3
		c-1.7,0.9-3.4,2-5.2,2.8c-29.5,13-59,25.9-88.5,38.8c-1,0.5-2,1.1-4.2,2.3c22.5,0,43.4,0.1,64.4-0.2c2,0,4.5-2,5.8-3.8
		c8.9-11.8,17.6-23.7,26.3-35.7C492.1,360.4,492.1,358.7,492.6,357.3c0.1,0.1,0.2,0.1,0.3,0.2c0,0,0,0.1,0,0.2
		C492.8,357.5,492.7,357.4,492.6,357.3z M93.9,517.5c1.4,0.9,2.4,1.3,3.1,1.9c61.8,56.3,123.6,112.5,185.4,168.9
		c3.2,2.9,6.5,4.3,10.7,4.3c16-0.1,32,0,48-0.1c2.1,0,4.2-0.4,6.4-0.7c0-2.4,0-4.2,0-6c-0.1-23-0.3-46-0.3-68.9
		c0-7.4-0.2-7.8-7.8-7.8c-7.8,0-15.7,0.2-23.5-0.1c-1.9-0.1-4.3-1.1-5.4-2.5c-11.1-14.1-22-28.4-32.9-42.7c-1.7-2.3-3.2-4.8-5.6-8.2
		c27.4,0,53.6,0,79.7,0c0.1-0.4,0.2-0.8,0.4-1.2c-5.6-3.8-11.2-7.6-16.9-11.2c-4.6-2.8-6.3-6.6-6.3-12c0.1-41,0-82-0.1-123
		c0-3.4-0.2-7.3-1.8-10.2c-21.6-40.7-43.4-81.3-65.2-121.9c-1.6-3-3.9-4.6-7.6-4.6c-20.7,0.1-41.3,0.1-62,0c-4.1,0-6.4,1.6-8,5.3
		c-5.3,12.2-10.9,24.3-16.2,36.4c-8.2,18.7-16.2,37.5-24.3,56.3c-1.5,3.6-3.2,5.8-7.8,5c-4.8-0.9-9.8-0.9-15-1.3
		c-0.7,3.1-1.4,6-1.9,9c-5.4,33-10.7,66-16,99.1c-0.5,3.3-2,4.1-5.1,3.7c-3.9-0.5-7.8-0.7-13-1.2c7.3,9.1,13.9,17.2,20.6,25.6
		C101.7,512,98.4,514.3,93.9,517.5z M502.4,205.2c31.6,28,62.9,55.8,95.1,84.3c3.9-74.9,7.7-148.5,11.5-222.1
		c-0.4-0.1-0.7-0.3-1.1-0.4C572.9,113,537.8,158.9,502.4,205.2z M87.7,67c-0.4,0.1-0.8,0.3-1.3,0.4c3.7,73.6,7.4,147.3,11.2,222
		c31.9-28.5,62.9-56.2,94.2-84.2C157,159,122.4,113,87.7,67z"/>
	<path class="st1" d="M93.9,517.5c4.6-3.1,7.8-5.4,11.8-8.1c-6.7-8.3-13.3-16.5-20.6-25.6c5.2,0.5,9.1,0.7,13,1.2
		c3,0.4,4.6-0.4,5.1-3.7c5.2-33,10.6-66.1,16-99.1c0.5-2.9,1.2-5.8,1.9-9c5.1,0.4,10.2,0.4,15,1.3c4.6,0.9,6.3-1.4,7.8-5
		c8-18.8,16.1-37.6,24.3-56.3c5.3-12.2,10.9-24.2,16.2-36.4c1.6-3.7,3.9-5.3,8-5.3c20.7,0.1,41.3,0.1,62,0c3.7,0,5.9,1.6,7.6,4.6
		c21.8,40.6,43.6,81.2,65.2,121.9c1.5,2.9,1.8,6.7,1.8,10.2c0.2,41,0.3,82,0.1,123c0,5.4,1.8,9.2,6.3,12c5.7,3.6,11.3,7.5,16.9,11.2
		c-0.1,0.4-0.2,0.8-0.4,1.2c-26.1,0-52.3,0-79.7,0c2.3,3.4,3.8,5.9,5.6,8.2c10.9,14.3,21.8,28.6,32.9,42.7c1.1,1.4,3.5,2.4,5.4,2.5
		c7.8,0.3,15.7,0.1,23.5,0.1c7.5,0,7.8,0.4,7.8,7.8c0,23,0.2,46,0.3,68.9c0,1.8,0,3.6,0,6c-2.3,0.2-4.4,0.7-6.4,0.7
		c-16,0.1-32,0-48,0.1c-4.2,0-7.6-1.4-10.7-4.3C220.6,631.9,158.8,575.6,97,519.4C96.2,518.7,95.3,518.3,93.9,517.5z"/>
	<path class="st1" d="M502.4,205.2C537.8,158.9,572.9,113,607.9,67c0.4,0.1,0.7,0.3,1.1,0.4c-3.8,73.6-7.6,147.2-11.5,222.1
		C565.4,261,534.1,233.2,502.4,205.2z"/>
	<path class="st1" d="M87.7,67c34.7,46,69.3,91.9,104.2,138.2c-31.3,28-62.3,55.7-94.2,84.2c-3.8-74.7-7.5-148.3-11.2-222
		C86.9,67.3,87.3,67.2,87.7,67z"/>
	<path class="st2" d="M492.5,357.3c-0.4,1.4-0.5,3.1-1.3,4.2c-8.7,12-17.4,23.9-26.3,35.7c-1.3,1.8-3.8,3.7-5.8,3.8
		c-20.9,0.3-41.9,0.2-64.4,0.2c2.2-1.2,3.2-1.9,4.2-2.3c29.5-12.9,59-25.9,88.5-38.8C489.2,359.2,490.9,358.2,492.5,357.3
		C492.6,357.3,492.5,357.3,492.5,357.3z"/>
	<path class="st2" d="M492.6,357.3c0.1,0.1,0.2,0.2,0.3,0.4c0-0.1,0-0.2,0-0.2C492.8,357.4,492.7,357.3,492.6,357.3
		C492.5,357.3,492.6,357.3,492.6,357.3z"/>
</g>
</svg>
